<?xml version="1.0" encoding="utf-8"?>
<!-- Generator: Adobe Illustrator 20.1.0, SVG Export Plug-In . SVG Version: 6.00 Build 0)  -->
<svg version="1.1" id="Layer_1" xmlns="http://www.w3.org/2000/svg" xmlns:xlink="http://www.w3.org/1999/xlink" x="0px" y="0px"
	 viewBox="0 0 512 512" style="enable-background:new 0 0 512 512;" xml:space="preserve">
<style type="text/css">
	.st0{fill:#0077B5;}
	.st1{fill:#FFFFFF;stroke:#0077B5;stroke-width:8;stroke-miterlimit:10;}
</style>
<path class="st0" d="M76.8,0h358.4C477.6,0,512,34.4,512,76.8v358.4c0,42.4-34.4,76.8-76.8,76.8H76.8C34.4,512,0,477.6,0,435.2V76.8
	C0,34.4,34.4,0,76.8,0z"/>
<g>
	<path class="st1" d="M455.8,238.1c0,22.5-3.9,43.4-11.6,62.8c-7.7,19.4-18.4,34.6-32.1,45.6c-13.7,11-29.3,16.5-46.8,16.5
		c-12.6,0-24-2.5-34.2-7.5c-10.2-5-18.2-12-23.9-20.9h-3.6c-17,19-37.7,28.4-62.1,28.4c-29.1,0-51.5-8.5-67.1-25.6
		c-15.6-17-23.4-40.8-23.4-71.4c0-22.5,4.9-42.3,14.8-59.6c9.9-17.3,24.1-30.6,42.8-39.9c18.6-9.3,40.2-14,64.7-14
		c12.9,0,27.1,1.3,42.6,3.9c15.5,2.6,29.7,6.2,42.6,10.6l-5,100.8l-0.5,22.5c0,13.7,3.9,20.5,11.7,20.5c8.3,0,15-6.9,20.2-20.8
		c5.2-13.9,7.8-31.4,7.8-52.6c0-38.1-10.8-67.4-32.2-88.1c-21.5-20.7-52-31.1-91.5-31.1c-30.3,0-56.6,6.3-78.9,18.9
		c-22.4,12.6-39.5,30.6-51.2,54.1c-11.8,23.5-17.7,51-17.7,82.5c0,40.6,11.3,71.9,34,94c22.7,22.1,54.7,33.1,96.1,33.1
		c18.5,0,38.4-2,59.8-6c21.4-4,42.4-9.6,62.9-17v54.7c-35.7,15.1-75.5,22.7-119.4,22.7c-61.8,0-110.3-16.1-145.6-48.4
		c-35.3-32.2-52.9-77-52.9-134.1c0-40.3,9.1-76.4,27.4-108.3c18.2-31.9,43.4-56.5,75.5-73.8c32.1-17.3,68.4-25.9,109-25.9
		c37.3,0,70.2,7.1,98.8,21.3c28.6,14.2,50.6,34.4,65.9,60.6C448.1,172.9,455.8,203.4,455.8,238.1z M218.1,265.6
		c0,15.9,2.9,27.5,8.7,34.6c5.8,7.2,13.5,10.7,23.1,10.7c12.3,0,21.3-4.9,27-14.8c5.7-9.9,9.5-27.4,11.2-52.6l2.4-37.3
		c-6.4-1-11.8-1.4-16.2-1.4c-17.2,0-30.9,5.3-41,16C223.2,231.6,218.1,246.4,218.1,265.6z"/>
</g>
</svg>
