<?xml version="1.0" encoding="utf-8"?>
<!-- Generator: Adobe Illustrator 20.1.0, SVG Export Plug-In . SVG Version: 6.00 Build 0)  -->
<svg version="1.1" id="Layer_1" xmlns="http://www.w3.org/2000/svg" xmlns:xlink="http://www.w3.org/1999/xlink" x="0px" y="0px"
	 viewBox="0 0 512 512" style="enable-background:new 0 0 512 512;" xml:space="preserve">
<style type="text/css">
	.st0{fill:#0077B5;}
	.st1{fill:#FFFFFF;}
</style>
<path class="st0" d="M76.8,0h358.4C477.6,0,512,34.4,512,76.8v358.4c0,42.4-34.4,76.8-76.8,76.8H76.8C34.4,512,0,477.6,0,435.2V76.8
	C0,34.4,34.4,0,76.8,0z"/>
<path class="st1" d="M61,178h86v258H61V178z M105,54c-30,0-49,20-49,45s19,44,47,44h1c30,0,48-19,48-44S134,54,105,54z M357,173
	c-45,0-66,25-77,42v-36h-86v258h86V293c0-8,1-16,3-21c6-16,20-32,44-32c31,0,43,24,43,59v138h86V289C456,209,414,173,357,173z"/>
</svg>
